<svg xmlns="http://www.w3.org/2000/svg" x="0px" y="0px"
width="100" height="100"
viewBox="0 0 224 224"
style=" fill:#000000;"><g fill="none" fill-rule="nonzero" stroke="none" stroke-width="1" stroke-linecap="butt" stroke-linejoin="miter" stroke-miterlimit="10" stroke-dasharray="" stroke-dashoffset="0" font-family="none" font-weight="none" font-size="none" text-anchor="none" style="mix-blend-mode: normal"><path d="M0,224v-224h224v224z" fill="none"></path><g fill="#e74c3c"><g id="surface1"><path d="M170.3975,62.6675c-1.82,-0.035 -3.4825,1.05 -4.2175,2.7125c-0.7175,1.68 -0.35,3.6225 0.9275,4.9175l35.735,37.2225h-193.7775c-1.61,-0.0175 -3.115,0.8225 -3.92,2.2225c-0.8225,1.4 -0.8225,3.115 0,4.515c0.805,1.4 2.31,2.24 3.92,2.2225h193.7775l-35.735,37.2225c-1.715,1.785 -1.645,4.62 0.14,6.335c1.785,1.715 4.62,1.6625 6.335,-0.14l45.99,-47.8975l-45.99,-47.8975c-0.8225,-0.8925 -1.9775,-1.4 -3.185,-1.435z"></path></g></g></g></svg>