<svg xmlns="http://www.w3.org/2000/svg" x="0px" y="0px"
width="100" height="100"
viewBox="0 0 224 224"
style=" fill:#000000;"><g fill="none" fill-rule="nonzero" stroke="none" stroke-width="1" stroke-linecap="butt" stroke-linejoin="miter" stroke-miterlimit="10" stroke-dasharray="" stroke-dashoffset="0" font-family="none" font-weight="none" font-size="none" text-anchor="none" style="mix-blend-mode: normal"><path d="M0,224v-224h224v224z" fill="none"></path><g fill-opacity="0.23137" fill="#000000"><g id="surface1"><path d="M88.76,58.66c-0.98,0.175 -1.855,0.665 -2.52,1.4l-48.86,48.72l-3.08,3.22l3.08,3.22l48.86,48.72c1.085,1.33 2.8175,1.9425 4.4975,1.5575c1.6625,-0.385 2.975,-1.6975 3.36,-3.36c0.385,-1.68 -0.2275,-3.4125 -1.5575,-4.4975l-41.16,-41.16h132.3c1.61,0.0175 3.115,-0.8225 3.9375,-2.2225c0.805,-1.4 0.805,-3.115 0,-4.515c-0.8225,-1.4 -2.3275,-2.24 -3.9375,-2.2225h-132.3l41.16,-41.16c1.4525,-1.3475 1.8375,-3.4825 0.9625,-5.25c-0.8575,-1.785 -2.8,-2.765 -4.7425,-2.45z"></path></g></g></g></svg>